<svg xmlns="http://www.w3.org/2000/svg" viewBox="0 0 112 107"><defs><style>.cls-1{fill:#ed1c24;}.cls-2{fill:#4d4d4d;}</style></defs><title>Asset 1</title><g id="Layer_2" data-name="Layer 2"><g id="Layer_1-2" data-name="Layer 1"><path class="cls-1" d="M0,3.21V107H28.51V3.21ZM25.06,98.53H3.45V92.12H25.06Zm-20.21-26A9.41,9.41,0,1,1,14.26,82,9.42,9.42,0,0,1,4.85,72.54ZM25.06,16.46H3.45V10.05H25.06Z"/><path class="cls-2" d="M19.83,72.54A5.58,5.58,0,1,1,14.26,67,5.58,5.58,0,0,1,19.83,72.54Z"/><path class="cls-2" d="M35.93,19.88V107h26V19.88ZM58.14,98.53H39.67V92.12H58.14Zm0-65.4H39.67V26.72H58.14Z"/><path class="cls-1" d="M86.56,0,61.41,6.4,86.84,107,112,100.6ZM66.16,12.24l19-4.83,1.57,6.22-19,4.83Zm20,79.59,19.26-4.9L107,93.14,87.72,98Z"/></g></g></svg>
